<?xml version="1.0" encoding="UTF-8"?>
<svg id="Layer_2" xmlns="http://www.w3.org/2000/svg" viewBox="0 0 30.01 32.82">
  <defs>
    <style>
      .cls-1 {
        fill: #c3bab2;
      }

      .cls-2 {
        fill: #8f7c70;
      }

      .cls-3 {
        fill: #aa9d94;
      }

      .cls-4 {
        fill: #f14e4e;
      }

      .cls-5 {
        fill: #f16969;
      }

      .cls-6 {
        fill: #f2917f;
      }

      .cls-7 {
        fill: #753e1d;
      }
    </style>
  </defs>
  <g id="Layer_1-2" data-name="Layer_1">
    <g>
      <path class="cls-2" d="M7.62,15.57c.29-.33.75-.64.81-1,.05-.31-.42-.67-.61-1.03-.81-1.6-.89-3.29-.58-5.02.2-1.11.53-2.19,1.09-3.18.16-.29.21-.59.21-.91.01-1.28.43-2.45,1.07-3.55.2-.35.45-.5.89-.5,1.03.01,2,.22,2.89.72.35.2.65.18,1.03.06,3.1-1.03,6.12-.83,9.02.7.4.21.76.31,1.24.23,1.37-.21,2.68.11,3.93.67.3.13.47.33.48.67.03,1.1.11,2.21-.35,3.26-.18.39-.12.76-.01,1.14.49,1.75.91,3.51.8,5.35-.14,2.27-.94,4.19-2.9,5.5-.39.26-.83.41-1.32.62.62.82,1.07,1.7,1.29,2.68.12.5.09,1.08.34,1.49.26.41.9.39,1.35.64.99.58,1.71,1.31,1.7,2.54-.01,1.14-.67,1.99-1.79,2.18-1.38.23-2.78.2-4.18.05-.5-.05-.95-.05-1.43.14-.79.32-1.63.52-2.47.7-.35.07-.53.22-.45.6.35,1.63-1.38,2.92-3.34,2.41-1.24-.32-2.07-1.18-2.67-2.27-.9-1.64-1.44-3.43-1.93-5.22-.51-1.85-.79-3.73-.92-5.64-.05-.78-.09-.8-.85-.78-.35,0-.67-.12-1.02-.13-.21-.23-.52-.3-.77-.46-.48-.49-.83-1.04-.78-1.76.06-.29.02-.61.19-.88ZM25.29,24.25c.46-.14.64-.43.6-.93-.09-1.25-.52-2.36-1.28-3.33-.37-.47-.75-1.07-1.54-.89-.24-.06-.47-.11-.71-.17-.15-.04-.28-.12-.25-.3.03-.15.18-.14.3-.14.37,0,.73,0,1.1,0,1.71.06,3.09-.58,4.03-2.03.52-.8.9-1.69.96-2.65.04-.64.18-1.31-.1-1.94.05-1.24-.14-2.43-.55-3.6-.26-.72-.25-1.4.06-2.13.28-.67.36-1.41.32-2.16-.01-.24-.07-.41-.33-.51-1.14-.45-2.32-.6-3.52-.36-.34.07-.59.03-.89-.16-1.69-1.02-3.54-1.54-5.5-1.52-1.19.01-2.38.24-3.49.7-.46.19-.87.21-1.32-.08-.69-.44-1.49-.58-2.28-.76-.28-.07-.46.03-.59.29-.45.88-.84,1.78-.78,2.79.03.51-.11.95-.34,1.4-.85,1.61-1.25,3.33-1.13,5.16.08,1.15.44,2.19,1.27,3.04.28.28.51.4.95.28,1.28-.35,2.24.08,3.03,1.17.55.76.87,1.64,1.39,2.41.09.14.22.32.04.46-.21.17-.37,0-.49-.16-.09-.11-.16-.25-.23-.37-.26-.47-.52-.94-.78-1.41-.35-.62-.76-1.21-1.45-1.5-.84-.35-2.31.05-3.02.8-.72.76-.4,1.89.63,2.09.7.13,1.42.11,2.05-.34.18-.13.36-.26.53-.39.1-.08.21-.13.33-.04.14.1.17.23.07.38-.26.37-.21.8-.2,1.21.02,1.05-.02,2.1.11,3.15.12.96.13,1.95.34,2.9.42,1.86,1.01,3.67,1.91,5.37.48.91,1.19,1.61,2.24,1.88.64.16,1.51-.2,1.87-.74.29-.44.12-.87-.02-1.27-.12-.32-.43,0-.65,0-.21-.01-.42-.04-.43-.29,0-.2.18-.25.36-.29,1.64-.37,3.28-.75,4.86-1.33.31-.11.61-.17.93-.11,1.39.27,2.79.14,4.18.09,1-.04,1.48-.94,1.11-1.85-.45-1.12-2.29-1.86-3.38-1.37-.13.06-.27.12-.41.15-.12.02-.25,0-.29-.15-.03-.1,0-.2.09-.25.1-.06.21-.12.32-.18Z"/>
      <path class="cls-4" d="M8.49,2c.02.33-.09.63-.2.93-.39,1.03-1.08,1.85-1.88,2.58-.25.23-.51.25-.81.12-.89-.4-1.78-.8-2.55-1.43-.54-.45-.92-1-1.09-1.7-.18-.78,0-1.46.6-1.99C3.16,0,3.85-.01,4.49.31c.4.2.67.15,1.05-.05,1.44-.75,2.98.17,2.94,1.73ZM7.48,2.14c0-.91-.63-1.35-1.31-1.09-.29.11-.58.25-.81.49-.24.25-.52.25-.77,0-.22-.21-.45-.37-.75-.42-.62-.09-.92.18-.92.8,0,.48.16.88.49,1.25.63.71,1.51.96,2.29,1.4.12.07.23.07.33-.03.72-.74,1.34-1.54,1.45-2.41Z"/>
      <path class="cls-4" d="M3.33,12.81c-.86.03-1.61,0-2.29-.41-.34-.21-.63-.47-.82-.82-.53-1.01-.07-2.09,1.05-2.33.41-.09.68-.24.9-.61.4-.67,1.04-.98,1.82-.83.74.14,1.19.66,1.38,1.37.28,1.02.13,2.04-.13,3.05-.07.27-.27.39-.54.42-.49.06-.97.12-1.37.17ZM4.53,10.36c.03-.37,0-.73-.15-1.07-.19-.46-.72-.67-1.13-.43-.27.15-.39.43-.47.71q-.2.67-.87.57c-.37-.06-.71.05-.87.39-.14.31-.02.61.25.85.17.15.36.26.56.34.37.14.75.22,1.14.17,1.46-.16,1.47-.01,1.54-1.52Z"/>
      <path class="cls-4" d="M8.2,18.21c.25.16.56.23.77.46-.59.78-1.39,1.18-2.34,1.32-.55.08-1.01-.08-1.44-.39-.87-.63-.91-1.6-.08-2.27.2-.16.32-.3.36-.57.19-1.27.92-1.66,2.14-1.19-.17.27-.13.58-.19.88-.1,0-.2,0-.29-.03-.59-.15-.67-.09-.69.52,0,.07,0,.15,0,.22.05.41-.07.68-.48.87-.54.26-.53.58-.04.89.25.16.51.22.83.12.55-.18,1.02-.45,1.44-.82Z"/>
      <path class="cls-1" d="M23.52,18.49c-.37,0-.73,0-1.1,0-.12,0-.27,0-.3.14-.03.17.1.26.25.3.23.06.47.11.71.17,0,.31.27.44.44.65,1.06,1.31,1.79,2.76,1.78,4.5-.11.06-.22.12-.32.18-.09.06-.12.15-.09.25.04.15.17.17.29.15.14-.03.28-.09.41-.15,1.09-.49,2.93.25,3.38,1.37.37.91-.12,1.81-1.11,1.85-1.39.05-2.79.18-4.18-.09-.32-.06-.62,0-.93.11-1.58.58-3.22.96-4.86,1.33-.18.04-.37.09-.36.29.01.25.22.27.43.29.22.02.53-.32.65,0,.15.39.32.82.02,1.27-.36.54-1.22.9-1.87.74-1.05-.26-1.76-.96-2.24-1.88-.9-1.69-1.49-3.5-1.91-5.37-.21-.95-.22-1.93-.34-2.9-.13-1.05-.09-2.1-.11-3.15,0-.41-.06-.84.2-1.21.11-.15.07-.28-.07-.38-.12-.09-.22-.04-.33.04-.18.13-.35.26-.53.39-.63.45-1.35.47-2.05.34-1.03-.2-1.34-1.33-.63-2.09.71-.75,2.19-1.16,3.02-.8.69.29,1.1.88,1.45,1.5.27.47.52.94.78,1.41.07.13.14.26.23.37.13.15.28.32.49.16.18-.14.05-.32-.04-.46-.52-.77-.84-1.66-1.39-2.41-.79-1.09-1.75-1.51-3.03-1.17-.43.12-.67,0-.95-.28-.83-.85-1.19-1.89-1.27-3.04-.12-1.82.28-3.54,1.13-5.16.23-.45.37-.89.34-1.4-.06-1.01.33-1.91.78-2.79.13-.26.31-.36.59-.29.78.18,1.59.32,2.28.76.44.29.86.27,1.32.08,1.12-.46,2.3-.69,3.49-.7,1.97-.02,3.81.5,5.5,1.52.3.18.55.22.89.16,1.21-.24,2.38-.09,3.52.36.25.1.31.27.33.51.04.74-.04,1.48-.32,2.16-.31.73-.31,1.41-.06,2.13.41,1.16.6,2.36.55,3.6-.13.06-.17.16-.17.29,0,.74-.18,1.45-.45,2.13-.46,1.13-.96,2.24-2.04,2.95-.53.35-1.09.63-1.69.86-.2.07-.53.02-.55.38ZM25.57,4.79c.4.27.45.35.63.93.03.09.11.16.17.23.16.18.36.34.49.55.2.31.35.21.46-.04.26-.61.33-1.27.46-1.91.03-.15-.02-.29-.15-.39-.62-.5-1.71-.89-2.62-.34.24.35.51.64.95.77-.12.07-.23.12-.39.21ZM23.53,21.93c0-.17,0-.34,0-.51,0-.14-.08-.24-.22-.24-.15,0-.21.1-.22.24,0,.15.01.3,0,.44-.1.88-.42,1.66-1.1,2.25-.44.38-1.03.41-1.5.11-.47-.3-.61-.72-.52-1.31.07-.48.35-.85.52-1.28.08-.21.38-.45.07-.64-.38-.23-.41.22-.55.4-.34.43-.47.97-.58,1.49-.17.76.17,1.43.82,1.81.55.32,1.58.24,2.07-.18.79-.67,1.17-1.54,1.21-2.57ZM11.61,11.15c-.62,0-1.33.61-1.31,1.14.02.55.69,1.18,1.28,1.2.64.03,1.36-.61,1.35-1.19-.02-.56-.68-1.15-1.31-1.15ZM23.82,12.83c0,.63.52,1.11,1.2,1.11.8,0,1.31-.46,1.31-1.17,0-.57-.68-1.19-1.28-1.17-.63.03-1.22.63-1.22,1.23ZM14.15,12.18c.6,0,1.11-.5,1.09-1.05-.02-.56-.53-1.01-1.15-1-.63.01-1.1.46-1.08,1.05.02.58.5,1.01,1.13,1ZM22.25,12.49c.62,0,1.12-.47,1.1-1.02-.02-.56-.53-1.02-1.13-1.02-.58,0-1.08.49-1.07,1.06,0,.62.42.99,1.1.98ZM12.88,2.66c-.56-.56-1.22-.7-1.95-.66-.12,0-.26,0-.32.13-.4.76-.75,1.54-.78,2.54.51-.39.79-.85,1.29-1.04.06-.02.15-.11.14-.14-.1-.38.17-.3.37-.32.16-.01.33.08.46-.06,0-.14-.15-.21-.1-.34.27-.11.57.05.88-.11ZM18.74,12.76c.42,0,.77-.24.9-.62.08-.21.05-.4-.15-.5-.24-.12-.32.02-.4.25-.13.38-.5.42-.69.18-.34-.42-.59-.38-.97-.09-.16.12-.44.24-.44-.24,0-.31-.29-.34-.51-.08-.14.17-.17.33-.08.54.12.27.28.47.6.44.57-.06,1.14-.19,1.67.14.02.01.05,0,.07,0Z"/>
      <path class="cls-3" d="M23.52,18.49c.02-.36.35-.31.55-.38.6-.23,1.15-.5,1.69-.86,1.08-.72,1.59-1.82,2.04-2.95.27-.68.45-1.39.45-2.13,0-.13.04-.24.17-.29.28.63.14,1.3.1,1.94-.06.96-.44,1.84-.96,2.65-.94,1.45-2.32,2.09-4.03,2.03Z"/>
      <path class="cls-5" d="M8.2,18.21c-.43.37-.9.64-1.44.82-.32.1-.58.04-.83-.12-.49-.31-.5-.63.04-.89.41-.19.53-.46.48-.87,0-.07,0-.15,0-.22.02-.61.1-.66.69-.52.09.02.19.02.29.03-.06.73.3,1.27.78,1.76Z"/>
      <path class="cls-3" d="M25.29,24.25c.01-1.74-.71-3.19-1.78-4.5-.16-.2-.44-.33-.44-.65.79-.18,1.17.42,1.54.89.75.97,1.19,2.09,1.28,3.33.03.5-.14.79-.6.93Z"/>
      <path class="cls-5" d="M7.48,2.14c-.11.87-.73,1.67-1.45,2.41-.1.1-.21.1-.33.03-.78-.44-1.67-.69-2.29-1.4-.33-.37-.49-.77-.49-1.25,0-.63.31-.89.92-.8.3.04.54.21.75.42.25.24.53.25.77,0,.23-.24.52-.38.81-.49.67-.26,1.31.18,1.31,1.09Z"/>
      <path class="cls-5" d="M4.53,10.36c-.07,1.51-.09,1.36-1.54,1.52-.4.04-.78-.03-1.14-.17-.2-.08-.39-.19-.56-.34-.27-.24-.39-.54-.25-.85.16-.34.49-.45.87-.39q.67.1.87-.57c.08-.29.21-.56.47-.71.42-.24.94-.03,1.13.43.15.35.17.71.15,1.07Z"/>
      <path class="cls-6" d="M25.57,4.79c.17-.09.27-.14.39-.21-.43-.13-.71-.42-.95-.77.91-.54,2-.16,2.62.34.13.1.18.24.15.39-.13.64-.2,1.3-.46,1.91-.11.26-.26.35-.46.04-.13-.2-.33-.36-.49-.55-.06-.07-.14-.15-.17-.23-.18-.57-.23-.66-.63-.93Z"/>
      <path class="cls-2" d="M23.53,21.93c-.04,1.02-.42,1.89-1.21,2.57-.49.42-1.52.5-2.07.18-.65-.38-.99-1.05-.82-1.81.11-.52.25-1.05.58-1.49.14-.18.17-.63.55-.4.31.19,0,.43-.07.64-.17.43-.45.81-.52,1.28-.09.59.05,1.01.52,1.31.47.3,1.05.28,1.5-.11.68-.59,1-1.37,1.1-2.25.02-.15,0-.29,0-.44,0-.14.07-.24.22-.24.14,0,.21.1.22.24,0,.17,0,.34,0,.51Z"/>
      <path class="cls-6" d="M11.61,11.15c.63,0,1.29.59,1.31,1.15.02.58-.7,1.22-1.35,1.19-.59-.02-1.26-.65-1.28-1.2-.02-.53.69-1.14,1.31-1.14Z"/>
      <path class="cls-6" d="M23.82,12.83c0-.6.6-1.2,1.22-1.23.6-.02,1.28.6,1.28,1.17,0,.71-.51,1.17-1.31,1.17-.67,0-1.19-.48-1.2-1.11Z"/>
      <path class="cls-7" d="M14.15,12.18c-.63,0-1.12-.42-1.13-1-.02-.59.45-1.04,1.08-1.05.61-.01,1.13.44,1.15,1,.02.55-.49,1.04-1.09,1.05Z"/>
      <path class="cls-7" d="M22.25,12.49c-.67,0-1.1-.37-1.1-.98,0-.57.49-1.06,1.07-1.06.6,0,1.11.47,1.13,1.02.02.55-.48,1.01-1.1,1.02Z"/>
      <path class="cls-6" d="M12.88,2.66c-.31.16-.62,0-.88.11-.05.14.1.21.1.34-.13.14-.31.05-.46.06-.2.02-.47-.07-.37.32,0,.03-.08.12-.14.14-.5.19-.78.65-1.29,1.04.03-1,.38-1.78.78-2.54.06-.12.2-.12.32-.13.73-.04,1.39.1,1.95.66Z"/>
      <path class="cls-2" d="M18.74,12.76s-.05,0-.07,0c-.54-.32-1.11-.19-1.67-.14-.32.03-.48-.17-.6-.44-.09-.21-.07-.37.08-.54.22-.26.51-.23.51.08,0,.48.28.36.44.24.38-.28.64-.33.97.09.19.24.56.2.69-.18.08-.23.16-.37.4-.25.21.1.23.29.15.5-.13.38-.48.62-.9.62Z"/>
    </g>
  </g>
</svg>